<svg id="Layer_1" data-name="Layer 1" xmlns="http://www.w3.org/2000/svg" width="64" height="64" viewBox="0 0 64 64"><defs><style>.cls-1{fill:#666;}</style></defs><title>users_three_2</title><path id="users_three_2" class="cls-1" d="M37,34.65a10,10,0,1,0-10,0,20,20,0,0,0-15,18.3A1,1,0,0,0,13,54,1,1,0,0,0,14,53.05a18,18,0,0,1,36,0A1,1,0,0,0,51,54H51A1,1,0,0,0,52,52.95,20,20,0,0,0,37,34.65ZM24,26a8,8,0,1,1,8,8A8,8,0,0,1,24,26Zm2.46-12a9,9,0,1,0-12.15,12.7A17,17,0,0,0,2,43a1,1,0,0,0,2,0A15,15,0,0,1,19,28a1,1,0,0,0,0-2,7,7,0,1,1,5.81-10.91A1,1,0,1,0,26.46,14Zm23.22,12.7A9,9,0,1,0,37.46,14.08a1,1,0,0,0,1.67,1.1A7,7,0,1,1,45,26a1,1,0,0,0,0,2A15,15,0,0,1,60,43a1,1,0,0,0,2,0A17,17,0,0,0,49.68,26.67Z"/></svg>