<svg id="Layer_1" data-name="Layer 1" xmlns="http://www.w3.org/2000/svg" width="64" height="64" viewBox="0 0 64 64"><title>horiz_align_centre-01 22312</title><polygon points="29.95 47.45 29.95 17.36 20.54 26.05 10.22 26.05 10.22 38.74 20.54 38.74 29.95 47.45"/><path d="M35.51,42.28a16.65,16.65,0,0,0,0-19.77l-2,1.52a14.06,14.06,0,0,1,0,16.72Z"/><path d="M42.11,46.84a24.3,24.3,0,0,0,0-28.89l-2,1.52a21.72,21.72,0,0,1,0,25.85Z"/><path d="M46.37,14.89a29.57,29.57,0,0,1,0,35l2,1.53a32.21,32.21,0,0,0,0-38.07Z"/></svg>