<svg id="Layer_1" data-name="Layer 1" xmlns="http://www.w3.org/2000/svg" width="64" height="64" viewBox="0 0 64 64"><defs><style>.cls-1{fill:#666;}</style></defs><title>pill</title><path class="cls-1" d="M53.9,10.1a14,14,0,0,0-19.8,0l-24,24A14,14,0,0,0,29.9,53.9l24-24A14,14,0,0,0,53.9,10.1ZM28.49,52.49a12,12,0,0,1-17-17L22.8,24.23l17,17Zm12.7-12.71-17-17L35.51,11.52a12,12,0,1,1,17,17Z"/><path class="cls-1" d="M36.93,12.93a1,1,0,0,0,1.41,1.41,8,8,0,0,1,11.31,0,1,1,0,0,0,.71.29,1,1,0,0,0,.71-0.29,1,1,0,0,0,0-1.41A10,10,0,0,0,36.93,12.93Z"/></svg>